<mxfile host="drawio-plugin" modified="2023-02-15T13:19:35.998Z" agent="5.0 (Windows NT 6.2; Win64; x64) AppleWebKit/537.36 (KHTML, like Gecko) Chrome/98.0.4758.102 Safari/537.36" etag="IMkSwUI8qzy8Iqm7QP48" version="20.5.3" type="embed" pages="2"><diagram id="lPC1wfi9M7MsZw9QPvVO" name="LogicalArch"><mxGraphModel dx="540" dy="555" grid="1" gridSize="10" guides="1" tooltips="1" connect="1" arrows="1" fold="1" page="1" pageScale="1" pageWidth="850" pageHeight="1100" math="0" shadow="0"><root><mxCell id="0"/><mxCell id="1" parent="0"/><mxCell id="4" value="Shedules execution &lt;br&gt;and tracks progress" style="rounded=0;orthogonalLoop=1;jettySize=auto;html=1;fontFamily=Comic Sans MS;sketch=1;targetPerimeterSpacing=6;sourcePerimeterSpacing=6;endArrow=open;endFill=0;endSize=8;startSize=8;" parent="1" source="3" target="2" edge="1"><mxGeometry relative="1" as="geometry"/></mxCell><mxCell id="2" value="Job" style="rounded=0;whiteSpace=wrap;html=1;sketch=1;fontFamily=Comic Sans MS;" parent="1" vertex="1"><mxGeometry x="370" y="410" width="120" height="60" as="geometry"/></mxCell><mxCell id="zWrtrObrSbr8mjprI4FY-8" style="edgeStyle=none;rounded=0;sketch=1;orthogonalLoop=1;jettySize=auto;html=1;fontFamily=Comic Sans MS;endArrow=open;endFill=0;startSize=8;endSize=8;sourcePerimeterSpacing=6;targetPerimeterSpacing=6;" parent="1" source="3" target="zWrtrObrSbr8mjprI4FY-5" edge="1"><mxGeometry relative="1" as="geometry"/></mxCell><mxCell id="3" value="Scheduler" style="rounded=0;whiteSpace=wrap;html=1;sketch=1;fontFamily=Comic Sans MS;" parent="1" vertex="1"><mxGeometry x="370" y="130" width="120" height="60" as="geometry"/></mxCell><mxCell id="zWrtrObrSbr8mjprI4FY-4" value="Jobs&lt;br&gt;&amp;lt;AWS Lambda&amp;gt;" style="rounded=0;whiteSpace=wrap;html=1;sketch=1;fontFamily=Comic Sans MS;" parent="1" vertex="1"><mxGeometry x="380" y="420" width="120" height="60" as="geometry"/></mxCell><mxCell id="n1mfK1-QsFK_Y3yslD9x-4" value="Defines target" style="edgeStyle=none;rounded=0;sketch=1;orthogonalLoop=1;jettySize=auto;html=1;fontFamily=Comic Sans MS;endArrow=open;endFill=0;startSize=8;endSize=8;sourcePerimeterSpacing=6;targetPerimeterSpacing=6;" parent="1" source="zWrtrObrSbr8mjprI4FY-5" target="zWrtrObrSbr8mjprI4FY-4" edge="1"><mxGeometry relative="1" as="geometry"/></mxCell><mxCell id="zWrtrObrSbr8mjprI4FY-5" value="JobDefinition" style="rounded=0;whiteSpace=wrap;html=1;sketch=1;fontFamily=Comic Sans MS;" parent="1" vertex="1"><mxGeometry x="560" y="250" width="120" height="60" as="geometry"/></mxCell><mxCell id="n1mfK1-QsFK_Y3yslD9x-5" value="Defines when&lt;br&gt;&amp;nbsp;trigger a job" style="edgeStyle=none;rounded=0;sketch=1;orthogonalLoop=1;jettySize=auto;html=1;fontFamily=Comic Sans MS;endArrow=open;endFill=0;startSize=8;endSize=8;sourcePerimeterSpacing=6;targetPerimeterSpacing=6;" parent="1" source="zWrtrObrSbr8mjprI4FY-11" target="2" edge="1"><mxGeometry x="-0.3132" y="-5" relative="1" as="geometry"><mxPoint as="offset"/></mxGeometry></mxCell><mxCell id="zWrtrObrSbr8mjprI4FY-11" value="Trigger" style="rounded=0;whiteSpace=wrap;html=1;sketch=1;fontFamily=Comic Sans MS;" parent="1" vertex="1"><mxGeometry x="200" y="250" width="120" height="60" as="geometry"/></mxCell><mxCell id="zWrtrObrSbr8mjprI4FY-12" style="edgeStyle=none;rounded=0;sketch=1;orthogonalLoop=1;jettySize=auto;html=1;fontFamily=Comic Sans MS;endArrow=open;endFill=0;startSize=8;endSize=8;sourcePerimeterSpacing=6;targetPerimeterSpacing=6;" parent="1" source="3" target="zWrtrObrSbr8mjprI4FY-11" edge="1"><mxGeometry relative="1" as="geometry"><mxPoint x="497" y="206" as="sourcePoint"/><mxPoint x="573" y="254" as="targetPoint"/></mxGeometry></mxCell><mxCell id="lUmNxtGlDMGUBOQZostO-4" value="Store" style="rounded=0;whiteSpace=wrap;html=1;sketch=1;fontFamily=Comic Sans MS;" vertex="1" parent="1"><mxGeometry x="650" y="130" width="120" height="60" as="geometry"/></mxCell><mxCell id="lUmNxtGlDMGUBOQZostO-6" value="Stores objects in" style="edgeStyle=none;rounded=0;sketch=1;orthogonalLoop=1;jettySize=auto;html=1;fontFamily=Comic Sans MS;endArrow=open;endFill=0;startSize=8;endSize=8;sourcePerimeterSpacing=6;targetPerimeterSpacing=6;" edge="1" parent="1" source="3" target="lUmNxtGlDMGUBOQZostO-4"><mxGeometry relative="1" as="geometry"><mxPoint x="497" y="206" as="sourcePoint"/><mxPoint x="573" y="254" as="targetPoint"/></mxGeometry></mxCell></root></mxGraphModel></diagram><diagram id="pDhg87McwxgNfAMu6vuT" name="PhysicalArch"><mxGraphModel dx="540" dy="555" grid="1" gridSize="10" guides="1" tooltips="1" connect="1" arrows="1" fold="1" page="1" pageScale="1" pageWidth="850" pageHeight="1100" math="0" shadow="0"><root><mxCell id="0"/><mxCell id="1" parent="0"/><mxCell id="EoN9N1D45fwApov2rKzp-10" value="Standalone Instance*" style="rounded=0;whiteSpace=wrap;html=1;sketch=1;fontFamily=Comic Sans MS;verticalAlign=top;" parent="1" vertex="1"><mxGeometry x="110" y="160" width="330" height="180" as="geometry"/></mxCell><mxCell id="EoN9N1D45fwApov2rKzp-9" value="Luartz" style="rounded=0;whiteSpace=wrap;html=1;sketch=1;fontFamily=Comic Sans MS;" parent="1" vertex="1"><mxGeometry x="300" y="230" width="120" height="60" as="geometry"/></mxCell><mxCell id="ar8Tbk30Wacf7BFlE-ub-2" style="edgeStyle=none;rounded=0;sketch=1;orthogonalLoop=1;jettySize=auto;html=1;fontFamily=Comic Sans MS;endArrow=open;endFill=0;startSize=8;endSize=8;sourcePerimeterSpacing=6;targetPerimeterSpacing=6;" parent="1" source="EoN9N1D45fwApov2rKzp-11" target="EoN9N1D45fwApov2rKzp-9" edge="1"><mxGeometry relative="1" as="geometry"/></mxCell><mxCell id="EoN9N1D45fwApov2rKzp-11" value="Client" style="rounded=0;whiteSpace=wrap;html=1;sketch=1;fontFamily=Comic Sans MS;" parent="1" vertex="1"><mxGeometry x="120" y="230" width="120" height="60" as="geometry"/></mxCell><mxCell id="ar8Tbk30Wacf7BFlE-ub-3" value="AWS Lambda" style="rounded=0;whiteSpace=wrap;html=1;sketch=1;fontFamily=Comic Sans MS;verticalAlign=top;" parent="1" vertex="1"><mxGeometry x="560" y="160" width="180" height="180" as="geometry"/></mxCell><mxCell id="ar8Tbk30Wacf7BFlE-ub-4" value="Lambda Function&lt;br&gt;&amp;lt;Job&amp;gt;" style="rounded=0;whiteSpace=wrap;html=1;sketch=1;fontFamily=Comic Sans MS;" parent="1" vertex="1"><mxGeometry x="590" y="230" width="120" height="60" as="geometry"/></mxCell><mxCell id="ar8Tbk30Wacf7BFlE-ub-6" value="*Multi-instance or is out of scope. It's assumed that the client handles lock for staring executor itself.&amp;nbsp;" style="text;html=1;align=left;verticalAlign=middle;resizable=0;points=[];autosize=1;strokeColor=none;fillColor=none;fontFamily=Comic Sans MS;" parent="1" vertex="1"><mxGeometry x="80" y="470" width="610" height="30" as="geometry"/></mxCell><mxCell id="ar8Tbk30Wacf7BFlE-ub-5" value="Invokes" style="edgeStyle=none;rounded=0;sketch=1;orthogonalLoop=1;jettySize=auto;html=1;fontFamily=Comic Sans MS;endArrow=open;endFill=0;startSize=8;endSize=8;sourcePerimeterSpacing=6;targetPerimeterSpacing=6;exitX=1;exitY=0.25;exitDx=0;exitDy=0;entryX=0;entryY=0.25;entryDx=0;entryDy=0;" parent="1" source="EoN9N1D45fwApov2rKzp-9" target="ar8Tbk30Wacf7BFlE-ub-4" edge="1"><mxGeometry relative="1" as="geometry"/></mxCell><mxCell id="OLaikjNytE_Gszl0Gj1R-2" value="Result" style="edgeStyle=none;rounded=0;sketch=1;orthogonalLoop=1;jettySize=auto;html=1;fontFamily=Comic Sans MS;endArrow=open;endFill=0;startSize=8;endSize=8;sourcePerimeterSpacing=6;targetPerimeterSpacing=6;exitX=0;exitY=0.75;exitDx=0;exitDy=0;entryX=1;entryY=0.75;entryDx=0;entryDy=0;dashed=1;" edge="1" parent="1" source="ar8Tbk30Wacf7BFlE-ub-4" target="EoN9N1D45fwApov2rKzp-9"><mxGeometry relative="1" as="geometry"><mxPoint x="430" y="255" as="sourcePoint"/><mxPoint x="500" y="350" as="targetPoint"/></mxGeometry></mxCell></root></mxGraphModel></diagram></mxfile>